<svg width="140" height="140" viewBox="0 0 140 140" fill="none" xmlns="http://www.w3.org/2000/svg">
<path d="M43.6295 96.329C53.6295 97.189 63.0095 87.269 57.8595 82.109C52.4595 76.709 42.8195 86.859 43.6295 96.329Z" fill="url(#paint0_linear_8_743)"/>
<path d="M138.529 1.42911C137.753 0.651307 136.736 0.15907 135.644 0.0324394C134.552 -0.0941913 133.45 0.152196 132.516 0.731597C131.582 1.311 130.871 2.18931 130.5 3.22372C130.128 4.25813 130.117 5.38784 130.469 6.42911L122.079 14.8191C90.8491 17.3491 75.0194 29.9591 64.1294 54.6891C54.9894 52.0091 45.899 54.6891 42.249 66.1891C47.979 66.1891 52.2491 67.0891 56.0991 69.1191L54.2993 73.0091L66.9395 85.6491L70.8291 83.8491C72.8291 87.7091 73.769 91.9791 73.769 97.6991C85.299 94.0491 87.9393 84.9591 85.2593 75.8191C109.989 64.9291 122.599 49.0991 125.129 17.8191L133.529 9.42911C134.571 9.78098 135.7 9.77026 136.734 9.39871C137.769 9.02717 138.647 8.31665 139.227 7.38266C139.806 6.44866 140.052 5.3461 139.926 4.2543C139.799 3.16251 139.307 2.14569 138.529 1.36911V1.42911ZM100.919 48.5091C99.9839 49.4449 98.7914 50.0822 97.4937 50.3404C96.1959 50.5987 94.8509 50.4663 93.6284 49.96C92.4059 49.4537 91.3607 48.5962 90.6255 47.496C89.8903 46.3958 89.498 45.1023 89.498 43.7791C89.498 42.4559 89.8903 41.1624 90.6255 40.0622C91.3607 38.962 92.4059 38.1045 93.6284 37.5982C94.8509 37.0919 96.1959 36.9595 97.4937 37.2177C98.7914 37.476 99.9839 38.1133 100.919 39.0491C102.174 40.3037 102.878 42.0051 102.878 43.7791C102.878 45.5531 102.174 47.2546 100.919 48.5091V48.5091Z" fill="url(#paint1_linear_8_743)"/>
<path d="M116.019 64.989L115.509 65.589C124.759 109.899 67.2293 140.969 32.2593 108.799C-5.14072 74.379 27.5193 12.009 75.0493 23.879C77.4426 21.8446 79.9979 20.0085 82.6895 18.3891L82.8394 18.299C69.6213 13.626 55.2114 13.5609 41.9517 18.1142C28.6919 22.6676 17.3618 31.5717 9.80323 43.3794C2.24465 55.1871 -1.09832 69.2041 0.317881 83.1521C1.73408 97.1001 7.82639 110.159 17.604 120.207C27.3816 130.254 40.27 136.699 54.1743 138.495C68.0786 140.29 82.1814 137.33 94.1904 130.095C106.199 122.861 115.409 111.778 120.321 98.6466C125.234 85.5157 125.561 71.1093 121.249 57.769C119.705 60.3141 117.956 62.7288 116.019 64.989V64.989Z" fill="#183A70"/>
<defs>
<linearGradient id="paint0_linear_8_743" x1="47.8095" y1="92.159" x2="135.199" y2="4.76909" gradientUnits="userSpaceOnUse">
<stop stop-color="#462AA1"/>
<stop offset="1" stop-color="#AA28D1"/>
</linearGradient>
<linearGradient id="paint1_linear_8_743" x1="495925" y1="62262.7" x2="504463" y2="53724.9" gradientUnits="userSpaceOnUse">
<stop stop-color="#462AA1"/>
<stop offset="1" stop-color="#AA28D1"/>
</linearGradient>
</defs>
</svg>
